# xmcd CD database file
#
# Track frame offsets:
#	150
#	19399
#	44992
#	69547
#	85437
#	105324
#	138019
#	159384
#	182018
#	196174
#	218828
#	251438
#	288244
#	312622
#	331165
#
# Disc length: 4710 seconds
#
# Revision: 1
# Processed by: cddbd v1.5.2PL0 Copyright (c) Steve Scherf et al.
# Submitted via: CDex 1.70
#
DISCID=d712640f
DTITLE=Little Feat - Tramsmission Impossible 3 (Live in Boston 1975)
DYEAR=2016
DGENRE=Rock
TTITLE0=Two Trains
TTITLE1=Skin it Back
TTITLE2=Fat Man in the Bathtub
TTITLE3=A Apolitical Blues
TTITLE4=Oh Atlanta
TTITLE5=Day or Night
TTITLE6=All That You Dream
TTITLE7=Romance Dance
TTITLE8=Long Distance Love
TTITLE9=Cold, Cold, Cold
TTITLE10=Dixie Chicken
TTITLE11=Tripe Face Boogie
TTITLE12=Willin'
TTITLE13=Teenage Nervous Breakdown
TTITLE14=Spanish Moon
EXTD=WCBN Live FM broadcast from the Orpheum Theatre, Boston, MA Oct. 31, 1975 \n\nAll Access AACD0112 @2013 YEAR: 2016
EXTT0=
EXTT1=
EXTT2=
EXTT3=
EXTT4=
EXTT5=
EXTT6=
EXTT7=
EXTT8=
EXTT9=
EXTT10=
EXTT11=
EXTT12=
EXTT13=
EXTT14=
PLAYORDER=
